<svg xmlns="http://www.w3.org/2000/svg" viewBox="0 0 80 80" fill="none">
  <!-- 背景円 -->
  <circle cx="40" cy="40" r="40" fill="#003366"/>
  <!-- 顔 -->
  <circle cx="40" cy="32" r="16" fill="#FFE0C2"/>
  <!-- 髪 -->
  <path d="M24 28c0-10 7-18 16-18s16 8 16 18c0 2-1 3-2 4 1-8-5-16-14-16S26 22 27 30c-2-1-3-2-3-2z" fill="#2C1810"/>
  <path d="M24 28c-1 3-1 6 0 9 1-3 2-5 3-7-1 0-2-1-3-2z" fill="#2C1810"/>
  <path d="M56 28c1 3 1 6 0 9-1-3-2-5-3-7 1 0 2-1 3-2z" fill="#2C1810"/>
  <!-- 目 -->
  <ellipse cx="34" cy="32" rx="2" ry="2.5" fill="#333"/>
  <ellipse cx="46" cy="32" rx="2" ry="2.5" fill="#333"/>
  <!-- 口 -->
  <path d="M36 38c2 2 6 2 8 0" stroke="#E08080" stroke-width="1.5" fill="none" stroke-linecap="round"/>
  <!-- スーツ -->
  <path d="M20 65c0-14 9-20 20-20s20 6 20 20v15H20V65z" fill="#1A2744"/>
  <!-- 襟 -->
  <path d="M34 45l6 8 6-8" stroke="#FFFFFF" stroke-width="2" fill="none"/>
  <!-- ヘッドセット -->
  <path d="M22 30c0-10 8-20 18-20s18 10 18 20" stroke="#555" stroke-width="2.5" fill="none"/>
  <circle cx="22" cy="32" r="4" fill="#555"/>
  <circle cx="22" cy="32" r="2.5" fill="#777"/>
  <line x1="22" y1="36" x2="28" y2="42" stroke="#555" stroke-width="2"/>
  <circle cx="29" cy="43" r="3" fill="#555"/>
</svg>
